<?xml version="1.0" standalone="no"?>
<!DOCTYPE svg PUBLIC "-//W3C//DTD SVG 20010904//EN"
 "http://www.w3.org/TR/2001/REC-SVG-20010904/DTD/svg10.dtd">
<svg version="1.0" xmlns="http://www.w3.org/2000/svg"
 width="1536.000000pt" height="1152.000000pt" viewBox="0 0 1536.000000 1152.000000"
 preserveAspectRatio="xMidYMid meet">

<g transform="translate(0.000000,1152.000000) scale(0.100000,-0.100000)"
fill="#000000" stroke="none">
<path d="M10515 10794 c-370 -75 -2716 -548 -2995 -604 -214 -43 -985 -198
-2880 -580 -1323 -267 -1639 -330 -1646 -330 -10 0 4 -74 131 -675 75 -352
158 -746 185 -876 l50 -236 0 -3070 0 -3070 1177 -6 c648 -3 1923 -12 2833
-18 1294 -10 1907 -10 2810 0 635 7 1174 15 1198 18 l42 6 0 1377 c0 757 -3
2113 -7 3012 l-6 1636 -231 6 c-127 4 -852 18 -1611 31 -1991 36 -3487 63
-4384 80 -431 8 -859 15 -952 15 -92 0 -170 3 -172 8 -3 4 405 97 906 206 502
110 1009 221 1127 247 118 26 546 119 950 208 404 88 1302 285 1995 436 693
152 1456 319 1695 371 239 52 445 98 456 102 21 7 18 22 -167 886 -103 483
-189 879 -191 881 -2 1 -142 -27 -313 -61z m-245 -223 c0 -9 -560 -1623 -566
-1630 -4 -4 -668 -150 -672 -147 -3 4 536 1615 548 1635 6 12 97 34 332 83
344 71 358 73 358 59z m-1664 -343 c-11 -47 -560 -1613 -567 -1621 -8 -10
-658 -149 -675 -145 -7 2 104 334 276 828 l287 825 324 66 c178 37 332 67 343
68 14 1 17 -4 12 -21z m-1701 -345 c-3 -10 -116 -344 -250 -743 -134 -399
-255 -761 -271 -805 l-27 -81 -306 -63 c-405 -84 -383 -81 -378 -67 2 6 129
376 282 821 152 446 281 814 286 819 8 9 610 133 653 135 13 1 16 -4 11 -16z
m4009 -386 c32 -147 56 -273 53 -280 -5 -13 -312 -75 -321 -66 -3 3 41 145 97
316 56 171 105 309 108 305 3 -4 31 -128 63 -275z m-5657 81 c-4 -12 -373
-1134 -492 -1495 -31 -95 -57 -173 -59 -173 -1 0 -142 -30 -312 -66 -359 -76
-394 -83 -394 -77 0 4 77 218 400 1118 111 308 202 561 204 562 4 4 620 141
640 142 11 1 16 -4 13 -11z m-1441 -305 c-91 -285 -265 -784 -270 -773 -10 26
-138 701 -134 705 5 5 366 83 391 84 13 1 17 -4 13 -16z m332 -2049 c4 -3
-396 -693 -411 -709 -9 -10 -3 411 9 622 l6 101 197 -5 c108 -3 198 -7 199 -9z
m1502 -29 c0 -6 -859 -1498 -868 -1507 -4 -4 -162 -10 -351 -14 -294 -6 -344
-5 -339 7 3 8 132 232 288 499 155 267 350 603 433 747 l152 262 70 3 c112 6
615 8 615 3z m1709 -2 c0 -5 -197 -345 -437 -758 l-437 -750 -339 -8 c-187 -4
-341 -5 -344 -3 -2 3 60 114 138 248 79 134 269 459 423 723 154 264 291 497
304 518 l23 37 335 0 c184 0 335 -3 334 -7z m1617 -2 l100 -6 -323 -545 c-178
-300 -380 -641 -450 -757 l-125 -213 -339 0 c-234 0 -339 3 -339 11 0 8 654
1123 857 1462 l34 57 242 -1 c133 -1 287 -4 343 -8z m1787 -40 c-15 -27 -219
-371 -453 -764 l-425 -716 -343 0 -344 -1 28 48 c39 66 656 1112 776 1315 l99
167 345 0 346 0 -29 -49z m456 -1318 c1 -140 1 -143 -21 -147 -29 -7 -328 -13
-328 -7 0 2 75 138 168 302 l167 298 6 -152 c4 -84 7 -216 8 -294z"/>
</g>
</svg>
